M48
; DRILL file {KiCad (6.0.6)} date Thu 21 Jul 2022 08:41:21 AM EDT
; FORMAT={-:-/ absolute / inch / decimal}
; #@! TF.CreationDate,2022-07-21T08:41:21-04:00
; #@! TF.GenerationSoftware,Kicad,Pcbnew,(6.0.6)
; #@! TF.FileFunction,MixedPlating,1,2
FMAT,2
INCH
; #@! TA.AperFunction,Plated,PTH,ComponentDrill
T1C0.0315
; #@! TA.AperFunction,Plated,PTH,ComponentDrill
T2C0.0433
; #@! TA.AperFunction,Plated,PTH,ComponentDrill
T3C0.1181
%
G90
G05
T1
X0.4354Y-0.6953
X0.4354Y-0.7953
X0.4354Y-0.8953
X0.7685Y-0.7953
X0.8071Y-0.1701
X0.8071Y-0.5701
X0.9488Y-0.189
X0.9685Y-0.3535
X0.9685Y-0.6535
X1.0685Y-0.3535
X1.0685Y-0.6535
X1.1685Y-0.3535
X1.1685Y-0.6535
X1.1685Y-0.7953
X1.2685Y-0.3535
X1.2685Y-0.6535
X1.3488Y-0.189
X1.4291Y-0.352
X1.4291Y-0.752
X1.5866Y-0.3512
X1.5866Y-0.7512
T2
X0.3898Y-0.1583
X0.3898Y-0.5583
X0.6278Y-0.2701
X0.6278Y-0.3701
X0.6278Y-0.4701
T3
X0.185Y-0.2756
X0.185Y-0.5591
X0.185Y-0.8425
T0
M30
