%TF.GenerationSoftware,KiCad,Pcbnew,(6.0.6)*%
%TF.CreationDate,2022-07-21T08:40:51-04:00*%
%TF.ProjectId,electronic_flasher_relay,656c6563-7472-46f6-9e69-635f666c6173,rev?*%
%TF.SameCoordinates,PX5b8d800PY5204180*%
%TF.FileFunction,Copper,L2,Bot*%
%TF.FilePolarity,Positive*%
%FSLAX46Y46*%
G04 Gerber Fmt 4.6, Leading zero omitted, Abs format (unit mm)*
G04 Created by KiCad (PCBNEW (6.0.6)) date 2022-07-21 08:40:51*
%MOMM*%
%LPD*%
G01*
G04 APERTURE LIST*
G04 Aperture macros list*
%AMRoundRect*
0 Rectangle with rounded corners*
0 $1 Rounding radius*
0 $2 $3 $4 $5 $6 $7 $8 $9 X,Y pos of 4 corners*
0 Add a 4 corners polygon primitive as box body*
4,1,4,$2,$3,$4,$5,$6,$7,$8,$9,$2,$3,0*
0 Add four circle primitives for the rounded corners*
1,1,$1+$1,$2,$3*
1,1,$1+$1,$4,$5*
1,1,$1+$1,$6,$7*
1,1,$1+$1,$8,$9*
0 Add four rect primitives between the rounded corners*
20,1,$1+$1,$2,$3,$4,$5,0*
20,1,$1+$1,$4,$5,$6,$7,0*
20,1,$1+$1,$6,$7,$8,$9,0*
20,1,$1+$1,$8,$9,$2,$3,0*%
G04 Aperture macros list end*
%TA.AperFunction,ComponentPad*%
%ADD10RoundRect,0.250000X-1.750000X1.750000X-1.750000X-1.750000X1.750000X-1.750000X1.750000X1.750000X0*%
%TD*%
%TA.AperFunction,ComponentPad*%
%ADD11C,4.000000*%
%TD*%
%TA.AperFunction,SMDPad,CuDef*%
%ADD12RoundRect,0.250000X0.412500X0.650000X-0.412500X0.650000X-0.412500X-0.650000X0.412500X-0.650000X0*%
%TD*%
%TA.AperFunction,ComponentPad*%
%ADD13R,1.600000X1.600000*%
%TD*%
%TA.AperFunction,ComponentPad*%
%ADD14O,1.600000X1.600000*%
%TD*%
%TA.AperFunction,ComponentPad*%
%ADD15C,1.600000*%
%TD*%
%TA.AperFunction,ComponentPad*%
%ADD16R,2.000000X1.905000*%
%TD*%
%TA.AperFunction,ComponentPad*%
%ADD17O,2.000000X1.905000*%
%TD*%
%TA.AperFunction,ComponentPad*%
%ADD18R,1.500000X1.500000*%
%TD*%
%TA.AperFunction,ComponentPad*%
%ADD19C,1.500000*%
%TD*%
%TA.AperFunction,ComponentPad*%
%ADD20R,2.200000X2.200000*%
%TD*%
%TA.AperFunction,ComponentPad*%
%ADD21O,2.200000X2.200000*%
%TD*%
%TA.AperFunction,SMDPad,CuDef*%
%ADD22RoundRect,0.250000X0.337500X0.475000X-0.337500X0.475000X-0.337500X-0.475000X0.337500X-0.475000X0*%
%TD*%
%TA.AperFunction,Conductor*%
%ADD23C,1.500000*%
%TD*%
%TA.AperFunction,Conductor*%
%ADD24C,2.000000*%
%TD*%
%TA.AperFunction,Conductor*%
%ADD25C,1.000000*%
%TD*%
G04 APERTURE END LIST*
D10*
%TO.P,J1,1,Pin_1*%
%TO.N,+12V*%
X4700000Y-7000000D03*
D11*
%TO.P,J1,2,Pin_2*%
%TO.N,/OUT*%
X4700000Y-14200000D03*
%TO.P,J1,3,Pin_3*%
%TO.N,GND*%
X4700000Y-21400000D03*
%TD*%
D12*
%TO.P,C1,1*%
%TO.N,Net-(C1-Pad1)*%
X27762500Y-13900000D03*
%TO.P,C1,2*%
%TO.N,GND*%
X24637500Y-13900000D03*
%TD*%
D13*
%TO.P,U1,1,GND*%
%TO.N,GND*%
X24600000Y-16600000D03*
D14*
%TO.P,U1,2,TR*%
%TO.N,Net-(C1-Pad1)*%
X27140000Y-16600000D03*
%TO.P,U1,3,Q*%
%TO.N,Net-(R4-Pad1)*%
X29680000Y-16600000D03*
%TO.P,U1,4,R*%
%TO.N,+12V*%
X32220000Y-16600000D03*
%TO.P,U1,5,CV*%
%TO.N,Net-(C2-Pad1)*%
X32220000Y-8980000D03*
%TO.P,U1,6,THR*%
%TO.N,Net-(C1-Pad1)*%
X29680000Y-8980000D03*
%TO.P,U1,7,DIS*%
%TO.N,Net-(R1-Pad2)*%
X27140000Y-8980000D03*
%TO.P,U1,8,VCC*%
%TO.N,+12V*%
X24600000Y-8980000D03*
%TD*%
D15*
%TO.P,R5,1*%
%TO.N,Net-(Q1-Pad3)*%
X20500000Y-14480000D03*
D14*
%TO.P,R5,2*%
%TO.N,+12V*%
X20500000Y-4320000D03*
%TD*%
D15*
%TO.P,R4,1*%
%TO.N,Net-(R4-Pad1)*%
X29680000Y-20200000D03*
D14*
%TO.P,R4,2*%
%TO.N,Net-(Q1-Pad2)*%
X19520000Y-20200000D03*
%TD*%
D15*
%TO.P,R3,1*%
%TO.N,Net-(C1-Pad1)*%
X40300000Y-8920000D03*
D14*
%TO.P,R3,2*%
%TO.N,Net-(R2-Pad1)*%
X40300000Y-19080000D03*
%TD*%
D15*
%TO.P,R2,1*%
%TO.N,Net-(R2-Pad1)*%
X36300000Y-19100000D03*
D14*
%TO.P,R2,2*%
%TO.N,Net-(R1-Pad2)*%
X36300000Y-8940000D03*
%TD*%
D15*
%TO.P,R1,1*%
%TO.N,+12V*%
X24100000Y-4800000D03*
D14*
%TO.P,R1,2*%
%TO.N,Net-(R1-Pad2)*%
X34260000Y-4800000D03*
%TD*%
D16*
%TO.P,Q2,1,G*%
%TO.N,Net-(Q1-Pad3)*%
X15945000Y-11940000D03*
D17*
%TO.P,Q2,2,D*%
%TO.N,/OUT*%
X15945000Y-9400000D03*
%TO.P,Q2,3,S*%
%TO.N,+12V*%
X15945000Y-6860000D03*
%TD*%
D18*
%TO.P,Q1,1,E*%
%TO.N,GND*%
X11060000Y-22740000D03*
D19*
%TO.P,Q1,2,B*%
%TO.N,Net-(Q1-Pad2)*%
X11060000Y-20200000D03*
%TO.P,Q1,3,C*%
%TO.N,Net-(Q1-Pad3)*%
X11060000Y-17660000D03*
%TD*%
D20*
%TO.P,D1,1,K*%
%TO.N,+12V*%
X9900000Y-4020000D03*
D21*
%TO.P,D1,2,A*%
%TO.N,/OUT*%
X9900000Y-14180000D03*
%TD*%
D22*
%TO.P,C2,1*%
%TO.N,Net-(C2-Pad1)*%
X27237500Y-11400000D03*
%TO.P,C2,2*%
%TO.N,GND*%
X25162500Y-11400000D03*
%TD*%
D23*
%TO.N,+12V*%
X24600000Y-8980000D02*
X24600000Y-7100000D01*
D24*
%TO.N,/OUT*%
X15945000Y-9400000D02*
X12000000Y-9400000D01*
D25*
%TO.N,Net-(Q1-Pad3)*%
X11060000Y-17660000D02*
X15140000Y-17660000D01*
X15140000Y-17660000D02*
X15945000Y-16855000D01*
X15945000Y-16855000D02*
X15945000Y-11940000D01*
%TO.N,Net-(C1-Pad1)*%
X27762500Y-13900000D02*
X32700000Y-13900000D01*
X32700000Y-13900000D02*
X34100000Y-12500000D01*
X34100000Y-12500000D02*
X34100000Y-10000000D01*
X27140000Y-16600000D02*
X27140000Y-14522500D01*
X27140000Y-14522500D02*
X27762500Y-13900000D01*
%TO.N,Net-(C2-Pad1)*%
X27237500Y-11400000D02*
X31400000Y-11400000D01*
X31400000Y-11400000D02*
X32220000Y-10580000D01*
X32220000Y-10580000D02*
X32220000Y-8980000D01*
%TO.N,+12V*%
X32220000Y-16600000D02*
X32220000Y-20420000D01*
X32220000Y-20420000D02*
X32800000Y-21000000D01*
X32800000Y-21000000D02*
X41400000Y-21000000D01*
X41400000Y-21000000D02*
X42200000Y-20200000D01*
X26000000Y-2900000D02*
X24100000Y-4800000D01*
X42200000Y-20200000D02*
X42200000Y-7700000D01*
X42200000Y-7700000D02*
X37400000Y-2900000D01*
X37400000Y-2900000D02*
X26000000Y-2900000D01*
%TO.N,Net-(C1-Pad1)*%
X29680000Y-8980000D02*
X29680000Y-7220000D01*
X29680000Y-7220000D02*
X30000000Y-6900000D01*
X34100000Y-7400000D02*
X34100000Y-10000000D01*
X30000000Y-6900000D02*
X33600000Y-6900000D01*
X39500000Y-11000000D02*
X40300000Y-10200000D01*
X33600000Y-6900000D02*
X34100000Y-7400000D01*
X34100000Y-10000000D02*
X35100000Y-11000000D01*
X35100000Y-11000000D02*
X39500000Y-11000000D01*
X40300000Y-10200000D02*
X40300000Y-8920000D01*
%TO.N,Net-(R1-Pad2)*%
X36300000Y-8940000D02*
X36300000Y-6840000D01*
X36300000Y-6840000D02*
X34260000Y-4800000D01*
X34260000Y-4800000D02*
X28400000Y-4800000D01*
X28400000Y-4800000D02*
X27140000Y-6060000D01*
X27140000Y-6060000D02*
X27140000Y-8980000D01*
%TO.N,Net-(R2-Pad1)*%
X36300000Y-19100000D02*
X40280000Y-19100000D01*
%TO.N,Net-(Q1-Pad2)*%
X19520000Y-20200000D02*
X11060000Y-20200000D01*
%TO.N,Net-(R4-Pad1)*%
X29680000Y-16600000D02*
X29680000Y-20200000D01*
%TO.N,Net-(Q1-Pad3)*%
X15945000Y-11940000D02*
X17960000Y-11940000D01*
X17960000Y-11940000D02*
X20500000Y-14480000D01*
%TD*%
%TA.AperFunction,Conductor*%
%TO.N,+12V*%
G36*
X25642121Y-1528502D02*
G01*
X25688614Y-1582158D01*
X25700000Y-1634500D01*
X25700000Y-7926019D01*
X25679998Y-7994140D01*
X25626342Y-8040633D01*
X25556068Y-8050737D01*
X25491488Y-8021243D01*
X25484905Y-8015114D01*
X25447875Y-7978084D01*
X25439467Y-7971028D01*
X25261007Y-7846069D01*
X25251511Y-7840586D01*
X25054050Y-7748509D01*
X25043760Y-7744764D01*
X25017499Y-7737727D01*
X25003401Y-7738062D01*
X25000000Y-7746003D01*
X25000000Y-8100000D01*
X24200000Y-8100000D01*
X24200000Y-7751153D01*
X24196027Y-7737622D01*
X24187479Y-7736393D01*
X24156240Y-7744764D01*
X24145950Y-7748509D01*
X23948489Y-7840586D01*
X23938993Y-7846069D01*
X23760533Y-7971028D01*
X23752125Y-7978084D01*
X23667114Y-8063095D01*
X23604802Y-8097121D01*
X23578019Y-8100000D01*
X17125656Y-8100000D01*
X17057535Y-8079998D01*
X17011042Y-8026342D01*
X17000938Y-7956068D01*
X17030432Y-7891488D01*
X17040857Y-7880806D01*
X17060481Y-7862950D01*
X17067506Y-7855417D01*
X17209945Y-7675056D01*
X17215650Y-7666469D01*
X17326714Y-7465278D01*
X17330944Y-7455866D01*
X17394257Y-7277076D01*
X17395029Y-7262996D01*
X17389318Y-7260000D01*
X14509740Y-7260000D01*
X14496209Y-7263973D01*
X14495205Y-7270955D01*
X14544898Y-7422988D01*
X14548895Y-7432497D01*
X14655011Y-7636344D01*
X14660505Y-7645069D01*
X14694126Y-7689847D01*
X14719032Y-7756331D01*
X14704040Y-7825727D01*
X14653910Y-7876001D01*
X14593366Y-7891500D01*
X11938999Y-7891500D01*
X11936491Y-7891702D01*
X11936486Y-7891702D01*
X11763076Y-7905654D01*
X11763071Y-7905655D01*
X11758035Y-7906060D01*
X11753127Y-7907266D01*
X11753124Y-7907266D01*
X11554437Y-7956068D01*
X11522294Y-7963963D01*
X11517642Y-7965938D01*
X11517638Y-7965939D01*
X11406372Y-8013169D01*
X11298844Y-8058812D01*
X11264214Y-8080620D01*
X11197071Y-8100000D01*
X10600000Y-8100000D01*
X8336905Y-10363095D01*
X8274593Y-10397121D01*
X8247810Y-10400000D01*
X1634500Y-10400000D01*
X1566379Y-10379998D01*
X1519886Y-10326342D01*
X1508500Y-10274000D01*
X1508500Y-8797095D01*
X2192001Y-8797095D01*
X2192338Y-8803614D01*
X2202257Y-8899206D01*
X2205149Y-8912600D01*
X2256588Y-9066784D01*
X2262761Y-9079962D01*
X2348063Y-9217807D01*
X2357099Y-9229208D01*
X2471829Y-9343739D01*
X2483240Y-9352751D01*
X2621243Y-9437816D01*
X2634424Y-9443963D01*
X2788710Y-9495138D01*
X2802086Y-9498005D01*
X2896438Y-9507672D01*
X2902854Y-9508000D01*
X4281885Y-9508000D01*
X4297124Y-9503525D01*
X4298329Y-9502135D01*
X4300000Y-9494452D01*
X4300000Y-9489884D01*
X5100000Y-9489884D01*
X5104475Y-9505123D01*
X5105865Y-9506328D01*
X5113548Y-9507999D01*
X6497095Y-9507999D01*
X6503614Y-9507662D01*
X6599206Y-9497743D01*
X6612600Y-9494851D01*
X6766784Y-9443412D01*
X6779962Y-9437239D01*
X6917807Y-9351937D01*
X6929208Y-9342901D01*
X7043739Y-9228171D01*
X7052751Y-9216760D01*
X7137816Y-9078757D01*
X7143963Y-9065576D01*
X7195138Y-8911290D01*
X7198005Y-8897914D01*
X7207672Y-8803562D01*
X7208000Y-8797146D01*
X7208000Y-7418115D01*
X7203525Y-7402876D01*
X7202135Y-7401671D01*
X7194452Y-7400000D01*
X5118115Y-7400000D01*
X5102876Y-7404475D01*
X5101671Y-7405865D01*
X5100000Y-7413548D01*
X5100000Y-9489884D01*
X4300000Y-9489884D01*
X4300000Y-7418115D01*
X4295525Y-7402876D01*
X4294135Y-7401671D01*
X4286452Y-7400000D01*
X2210116Y-7400000D01*
X2194877Y-7404475D01*
X2193672Y-7405865D01*
X2192001Y-7413548D01*
X2192001Y-8797095D01*
X1508500Y-8797095D01*
X1508500Y-6581885D01*
X2192000Y-6581885D01*
X2196475Y-6597124D01*
X2197865Y-6598329D01*
X2205548Y-6600000D01*
X4281885Y-6600000D01*
X4297124Y-6595525D01*
X4298329Y-6594135D01*
X4300000Y-6586452D01*
X4300000Y-6581885D01*
X5100000Y-6581885D01*
X5104475Y-6597124D01*
X5105865Y-6598329D01*
X5113548Y-6600000D01*
X7189884Y-6600000D01*
X7205123Y-6595525D01*
X7206328Y-6594135D01*
X7207999Y-6586452D01*
X7207999Y-6457004D01*
X14494971Y-6457004D01*
X14500682Y-6460000D01*
X15526885Y-6460000D01*
X15542124Y-6455525D01*
X15543329Y-6454135D01*
X15545000Y-6446452D01*
X15545000Y-6441885D01*
X16345000Y-6441885D01*
X16349475Y-6457124D01*
X16350865Y-6458329D01*
X16358548Y-6460000D01*
X17380260Y-6460000D01*
X17393791Y-6456027D01*
X17394795Y-6449045D01*
X17345102Y-6297012D01*
X17341105Y-6287503D01*
X17234989Y-6083656D01*
X17229495Y-6074931D01*
X17145993Y-5963717D01*
X23507587Y-5963717D01*
X23511330Y-5968717D01*
X23645947Y-6031490D01*
X23656239Y-6035236D01*
X23866688Y-6091625D01*
X23877481Y-6093528D01*
X24094525Y-6112517D01*
X24105475Y-6112517D01*
X24322519Y-6093528D01*
X24333312Y-6091625D01*
X24543761Y-6035236D01*
X24554053Y-6031490D01*
X24682046Y-5971806D01*
X24692630Y-5962487D01*
X24690823Y-5956509D01*
X24112811Y-5378496D01*
X24098868Y-5370883D01*
X24097034Y-5371014D01*
X24090420Y-5375265D01*
X23514344Y-5951342D01*
X23507587Y-5963717D01*
X17145993Y-5963717D01*
X17091507Y-5891148D01*
X17084664Y-5883441D01*
X16918509Y-5724661D01*
X16910499Y-5718174D01*
X16720653Y-5588670D01*
X16711679Y-5583571D01*
X16503227Y-5486812D01*
X16493550Y-5483251D01*
X16362459Y-5446896D01*
X16348356Y-5447109D01*
X16345000Y-5454760D01*
X16345000Y-6441885D01*
X15545000Y-6441885D01*
X15545000Y-5460709D01*
X15541027Y-5447178D01*
X15531947Y-5445873D01*
X15430229Y-5471422D01*
X15420481Y-5474741D01*
X15209711Y-5566385D01*
X15200636Y-5571251D01*
X15007673Y-5696085D01*
X14999502Y-5702378D01*
X14829520Y-5857050D01*
X14822494Y-5864583D01*
X14680055Y-6044944D01*
X14674350Y-6053531D01*
X14563286Y-6254722D01*
X14559056Y-6264134D01*
X14495743Y-6442924D01*
X14494971Y-6457004D01*
X7207999Y-6457004D01*
X7207999Y-5202905D01*
X7207662Y-5196386D01*
X7204371Y-5164669D01*
X8292001Y-5164669D01*
X8292371Y-5171490D01*
X8297895Y-5222352D01*
X8301521Y-5237604D01*
X8346676Y-5358054D01*
X8355214Y-5373649D01*
X8431715Y-5475724D01*
X8444276Y-5488285D01*
X8546351Y-5564786D01*
X8561946Y-5573324D01*
X8682394Y-5618478D01*
X8697649Y-5622105D01*
X8748514Y-5627631D01*
X8755328Y-5628000D01*
X9481885Y-5628000D01*
X9497124Y-5623525D01*
X9498329Y-5622135D01*
X9500000Y-5614452D01*
X9500000Y-5609884D01*
X10300000Y-5609884D01*
X10304475Y-5625123D01*
X10305865Y-5626328D01*
X10313548Y-5627999D01*
X11044669Y-5627999D01*
X11051490Y-5627629D01*
X11102352Y-5622105D01*
X11117604Y-5618479D01*
X11238054Y-5573324D01*
X11253649Y-5564786D01*
X11355724Y-5488285D01*
X11368285Y-5475724D01*
X11444786Y-5373649D01*
X11453324Y-5358054D01*
X11498478Y-5237606D01*
X11502105Y-5222351D01*
X11507631Y-5171486D01*
X11508000Y-5164672D01*
X11508000Y-4732521D01*
X19256393Y-4732521D01*
X19264764Y-4763760D01*
X19268509Y-4774050D01*
X19360586Y-4971511D01*
X19366069Y-4981007D01*
X19491028Y-5159467D01*
X19498084Y-5167875D01*
X19652125Y-5321916D01*
X19660533Y-5328972D01*
X19838993Y-5453931D01*
X19848489Y-5459414D01*
X20045950Y-5551491D01*
X20056240Y-5555236D01*
X20082501Y-5562273D01*
X20096599Y-5561938D01*
X20100000Y-5553997D01*
X20100000Y-5548847D01*
X20900000Y-5548847D01*
X20903973Y-5562378D01*
X20912521Y-5563607D01*
X20943760Y-5555236D01*
X20954050Y-5551491D01*
X21151511Y-5459414D01*
X21161007Y-5453931D01*
X21339467Y-5328972D01*
X21347875Y-5321916D01*
X21501916Y-5167875D01*
X21508972Y-5159467D01*
X21633931Y-4981007D01*
X21639414Y-4971511D01*
X21716837Y-4805475D01*
X22787483Y-4805475D01*
X22806472Y-5022519D01*
X22808375Y-5033312D01*
X22864764Y-5243761D01*
X22868510Y-5254053D01*
X22928194Y-5382046D01*
X22937513Y-5392630D01*
X22943491Y-5390823D01*
X23521504Y-4812811D01*
X23527881Y-4801132D01*
X24670883Y-4801132D01*
X24671014Y-4802966D01*
X24675265Y-4809580D01*
X25251342Y-5385656D01*
X25263717Y-5392413D01*
X25268717Y-5388670D01*
X25331490Y-5254053D01*
X25335236Y-5243761D01*
X25391625Y-5033312D01*
X25393528Y-5022519D01*
X25412517Y-4805475D01*
X25412517Y-4794525D01*
X25393528Y-4577481D01*
X25391625Y-4566688D01*
X25335236Y-4356239D01*
X25331490Y-4345947D01*
X25271806Y-4217954D01*
X25262487Y-4207370D01*
X25256509Y-4209177D01*
X24678496Y-4787189D01*
X24670883Y-4801132D01*
X23527881Y-4801132D01*
X23529117Y-4798868D01*
X23528986Y-4797034D01*
X23524735Y-4790420D01*
X22948658Y-4214344D01*
X22936283Y-4207587D01*
X22931283Y-4211330D01*
X22868510Y-4345947D01*
X22864764Y-4356239D01*
X22808375Y-4566688D01*
X22806472Y-4577481D01*
X22787483Y-4794525D01*
X22787483Y-4805475D01*
X21716837Y-4805475D01*
X21731491Y-4774050D01*
X21735236Y-4763760D01*
X21742273Y-4737499D01*
X21741938Y-4723401D01*
X21733997Y-4720000D01*
X20918115Y-4720000D01*
X20902876Y-4724475D01*
X20901671Y-4725865D01*
X20900000Y-4733548D01*
X20900000Y-5548847D01*
X20100000Y-5548847D01*
X20100000Y-4738115D01*
X20095525Y-4722876D01*
X20094135Y-4721671D01*
X20086452Y-4720000D01*
X19271153Y-4720000D01*
X19257622Y-4723973D01*
X19256393Y-4732521D01*
X11508000Y-4732521D01*
X11508000Y-4438115D01*
X11503525Y-4422876D01*
X11502135Y-4421671D01*
X11494452Y-4420000D01*
X10318115Y-4420000D01*
X10302876Y-4424475D01*
X10301671Y-4425865D01*
X10300000Y-4433548D01*
X10300000Y-5609884D01*
X9500000Y-5609884D01*
X9500000Y-4438115D01*
X9495525Y-4422876D01*
X9494135Y-4421671D01*
X9486452Y-4420000D01*
X8310116Y-4420000D01*
X8294877Y-4424475D01*
X8293672Y-4425865D01*
X8292001Y-4433548D01*
X8292001Y-5164669D01*
X7204371Y-5164669D01*
X7197743Y-5100794D01*
X7194851Y-5087400D01*
X7143412Y-4933216D01*
X7137239Y-4920038D01*
X7051937Y-4782193D01*
X7042901Y-4770792D01*
X6928171Y-4656261D01*
X6916760Y-4647249D01*
X6778757Y-4562184D01*
X6765576Y-4556037D01*
X6611290Y-4504862D01*
X6597914Y-4501995D01*
X6503562Y-4492328D01*
X6497145Y-4492000D01*
X5118115Y-4492000D01*
X5102876Y-4496475D01*
X5101671Y-4497865D01*
X5100000Y-4505548D01*
X5100000Y-6581885D01*
X4300000Y-6581885D01*
X4300000Y-4510116D01*
X4295525Y-4494877D01*
X4294135Y-4493672D01*
X4286452Y-4492001D01*
X2902905Y-4492001D01*
X2896386Y-4492338D01*
X2800794Y-4502257D01*
X2787400Y-4505149D01*
X2633216Y-4556588D01*
X2620038Y-4562761D01*
X2482193Y-4648063D01*
X2470792Y-4657099D01*
X2356261Y-4771829D01*
X2347249Y-4783240D01*
X2262184Y-4921243D01*
X2256037Y-4934424D01*
X2204862Y-5088710D01*
X2201995Y-5102086D01*
X2192328Y-5196438D01*
X2192000Y-5202855D01*
X2192000Y-6581885D01*
X1508500Y-6581885D01*
X1508500Y-3902501D01*
X19257727Y-3902501D01*
X19258062Y-3916599D01*
X19266003Y-3920000D01*
X20081885Y-3920000D01*
X20097124Y-3915525D01*
X20098329Y-3914135D01*
X20100000Y-3906452D01*
X20100000Y-3901885D01*
X20900000Y-3901885D01*
X20904475Y-3917124D01*
X20905865Y-3918329D01*
X20913548Y-3920000D01*
X21728847Y-3920000D01*
X21742378Y-3916027D01*
X21743607Y-3907479D01*
X21735236Y-3876240D01*
X21731491Y-3865950D01*
X21639414Y-3668489D01*
X21633931Y-3658993D01*
X21618891Y-3637513D01*
X23507370Y-3637513D01*
X23509177Y-3643491D01*
X24087189Y-4221504D01*
X24101132Y-4229117D01*
X24102966Y-4228986D01*
X24109580Y-4224735D01*
X24685656Y-3648658D01*
X24692413Y-3636283D01*
X24688670Y-3631283D01*
X24554053Y-3568510D01*
X24543761Y-3564764D01*
X24333312Y-3508375D01*
X24322519Y-3506472D01*
X24105475Y-3487483D01*
X24094525Y-3487483D01*
X23877481Y-3506472D01*
X23866688Y-3508375D01*
X23656239Y-3564764D01*
X23645947Y-3568510D01*
X23517954Y-3628194D01*
X23507370Y-3637513D01*
X21618891Y-3637513D01*
X21508972Y-3480533D01*
X21501916Y-3472125D01*
X21347875Y-3318084D01*
X21339467Y-3311028D01*
X21161007Y-3186069D01*
X21151511Y-3180586D01*
X20954050Y-3088509D01*
X20943760Y-3084764D01*
X20917499Y-3077727D01*
X20903401Y-3078062D01*
X20900000Y-3086003D01*
X20900000Y-3901885D01*
X20100000Y-3901885D01*
X20100000Y-3091153D01*
X20096027Y-3077622D01*
X20087479Y-3076393D01*
X20056240Y-3084764D01*
X20045950Y-3088509D01*
X19848489Y-3180586D01*
X19838993Y-3186069D01*
X19660533Y-3311028D01*
X19652125Y-3318084D01*
X19498084Y-3472125D01*
X19491028Y-3480533D01*
X19366069Y-3658993D01*
X19360586Y-3668489D01*
X19268509Y-3865950D01*
X19264764Y-3876240D01*
X19257727Y-3902501D01*
X1508500Y-3902501D01*
X1508500Y-3601885D01*
X8292000Y-3601885D01*
X8296475Y-3617124D01*
X8297865Y-3618329D01*
X8305548Y-3620000D01*
X9481885Y-3620000D01*
X9497124Y-3615525D01*
X9498329Y-3614135D01*
X9500000Y-3606452D01*
X9500000Y-3601885D01*
X10300000Y-3601885D01*
X10304475Y-3617124D01*
X10305865Y-3618329D01*
X10313548Y-3620000D01*
X11489884Y-3620000D01*
X11505123Y-3615525D01*
X11506328Y-3614135D01*
X11507999Y-3606452D01*
X11507999Y-2875331D01*
X11507629Y-2868510D01*
X11502105Y-2817648D01*
X11498479Y-2802396D01*
X11453324Y-2681946D01*
X11444786Y-2666351D01*
X11368285Y-2564276D01*
X11355724Y-2551715D01*
X11253649Y-2475214D01*
X11238054Y-2466676D01*
X11117606Y-2421522D01*
X11102351Y-2417895D01*
X11051486Y-2412369D01*
X11044672Y-2412000D01*
X10318115Y-2412000D01*
X10302876Y-2416475D01*
X10301671Y-2417865D01*
X10300000Y-2425548D01*
X10300000Y-3601885D01*
X9500000Y-3601885D01*
X9500000Y-2430116D01*
X9495525Y-2414877D01*
X9494135Y-2413672D01*
X9486452Y-2412001D01*
X8755331Y-2412001D01*
X8748510Y-2412371D01*
X8697648Y-2417895D01*
X8682396Y-2421521D01*
X8561946Y-2466676D01*
X8546351Y-2475214D01*
X8444276Y-2551715D01*
X8431715Y-2564276D01*
X8355214Y-2666351D01*
X8346676Y-2681946D01*
X8301522Y-2802394D01*
X8297895Y-2817649D01*
X8292369Y-2868514D01*
X8292000Y-2875328D01*
X8292000Y-3601885D01*
X1508500Y-3601885D01*
X1508500Y-2053250D01*
X1510246Y-2032345D01*
X1512770Y-2017344D01*
X1512770Y-2017341D01*
X1513576Y-2012552D01*
X1513729Y-2000000D01*
X1513040Y-1995188D01*
X1512723Y-1990327D01*
X1513008Y-1990308D01*
X1512607Y-1963549D01*
X1519234Y-1904736D01*
X1525513Y-1877229D01*
X1552485Y-1800147D01*
X1564727Y-1774726D01*
X1608178Y-1705574D01*
X1625770Y-1683515D01*
X1683515Y-1625770D01*
X1705574Y-1608178D01*
X1774726Y-1564727D01*
X1800147Y-1552485D01*
X1877228Y-1525513D01*
X1904736Y-1519234D01*
X1960226Y-1512982D01*
X1975868Y-1513077D01*
X1975879Y-1512200D01*
X1984851Y-1512310D01*
X1993724Y-1513691D01*
X2002626Y-1512527D01*
X2002628Y-1512527D01*
X2017677Y-1510559D01*
X2025286Y-1509564D01*
X2041621Y-1508500D01*
X25574000Y-1508500D01*
X25642121Y-1528502D01*
G37*
%TD.AperFunction*%
%TD*%
%TA.AperFunction,Conductor*%
%TO.N,/OUT*%
G36*
X14142121Y-8620002D02*
G01*
X14188614Y-8673658D01*
X14200000Y-8726000D01*
X14200000Y-16525500D01*
X14179998Y-16593621D01*
X14126342Y-16640114D01*
X14074000Y-16651500D01*
X11853568Y-16651500D01*
X11781297Y-16628713D01*
X11776218Y-16625156D01*
X11691654Y-16565944D01*
X11492076Y-16472880D01*
X11279371Y-16415885D01*
X11060000Y-16396693D01*
X10840629Y-16415885D01*
X10627924Y-16472880D01*
X10534562Y-16516415D01*
X10433334Y-16563618D01*
X10433329Y-16563621D01*
X10428347Y-16565944D01*
X10423840Y-16569100D01*
X10423838Y-16569101D01*
X10252473Y-16689092D01*
X10252470Y-16689094D01*
X10247962Y-16692251D01*
X10092251Y-16847962D01*
X10089094Y-16852470D01*
X10089092Y-16852473D01*
X9969101Y-17023838D01*
X9965944Y-17028347D01*
X9963621Y-17033329D01*
X9963618Y-17033334D01*
X9916415Y-17134562D01*
X9872880Y-17227924D01*
X9815885Y-17440629D01*
X9812005Y-17484981D01*
X9786142Y-17551099D01*
X9728639Y-17592739D01*
X9686484Y-17600000D01*
X1634500Y-17600000D01*
X1566379Y-17579998D01*
X1519886Y-17526342D01*
X1508500Y-17474000D01*
X1508500Y-16232873D01*
X3238310Y-16232873D01*
X3247139Y-16244493D01*
X3350280Y-16319430D01*
X3356961Y-16323670D01*
X3626572Y-16471890D01*
X3633707Y-16475247D01*
X3919770Y-16588508D01*
X3927296Y-16590953D01*
X4225279Y-16667462D01*
X4233050Y-16668945D01*
X4538278Y-16707503D01*
X4546169Y-16708000D01*
X4853831Y-16708000D01*
X4861722Y-16707503D01*
X5166950Y-16668945D01*
X5174721Y-16667462D01*
X5472704Y-16590953D01*
X5480230Y-16588508D01*
X5766293Y-16475247D01*
X5773428Y-16471890D01*
X6043039Y-16323670D01*
X6049720Y-16319430D01*
X6153234Y-16244223D01*
X6161657Y-16233300D01*
X6154753Y-16220439D01*
X4712810Y-14778495D01*
X4698869Y-14770883D01*
X4697034Y-14771014D01*
X4690420Y-14775265D01*
X3244923Y-16220763D01*
X3238310Y-16232873D01*
X1508500Y-16232873D01*
X1508500Y-14203958D01*
X2187290Y-14203958D01*
X2206607Y-14510994D01*
X2207600Y-14518855D01*
X2265246Y-14821046D01*
X2267217Y-14828723D01*
X2362284Y-15121309D01*
X2365199Y-15128672D01*
X2496189Y-15407041D01*
X2500001Y-15413974D01*
X2653484Y-15655825D01*
X2664090Y-15665122D01*
X2673363Y-15660951D01*
X4121505Y-14212810D01*
X4127882Y-14201131D01*
X5270883Y-14201131D01*
X5271014Y-14202966D01*
X5275265Y-14209580D01*
X6723996Y-15658310D01*
X6736376Y-15665070D01*
X6744515Y-15658978D01*
X6899999Y-15413974D01*
X6903811Y-15407041D01*
X7034801Y-15128672D01*
X7037716Y-15121309D01*
X7132783Y-14828723D01*
X7134754Y-14821046D01*
X7178174Y-14593431D01*
X8345564Y-14593431D01*
X8364817Y-14673624D01*
X8367866Y-14683009D01*
X8460936Y-14907700D01*
X8465417Y-14916494D01*
X8592496Y-15123867D01*
X8598289Y-15131840D01*
X8756249Y-15316787D01*
X8763213Y-15323751D01*
X8948160Y-15481711D01*
X8956133Y-15487504D01*
X9163506Y-15614583D01*
X9172300Y-15619064D01*
X9396991Y-15712134D01*
X9406376Y-15715183D01*
X9482384Y-15733431D01*
X9496470Y-15732726D01*
X9500000Y-15723847D01*
X9500000Y-15719545D01*
X10300000Y-15719545D01*
X10303973Y-15733076D01*
X10313431Y-15734436D01*
X10393624Y-15715183D01*
X10403009Y-15712134D01*
X10627700Y-15619064D01*
X10636494Y-15614583D01*
X10843867Y-15487504D01*
X10851840Y-15481711D01*
X11036787Y-15323751D01*
X11043751Y-15316787D01*
X11201711Y-15131840D01*
X11207504Y-15123867D01*
X11334583Y-14916494D01*
X11339064Y-14907700D01*
X11432134Y-14683009D01*
X11435183Y-14673624D01*
X11453431Y-14597616D01*
X11452726Y-14583530D01*
X11443847Y-14580000D01*
X10318115Y-14580000D01*
X10302876Y-14584475D01*
X10301671Y-14585865D01*
X10300000Y-14593548D01*
X10300000Y-15719545D01*
X9500000Y-15719545D01*
X9500000Y-14598115D01*
X9495525Y-14582876D01*
X9494135Y-14581671D01*
X9486452Y-14580000D01*
X8360455Y-14580000D01*
X8346924Y-14583973D01*
X8345564Y-14593431D01*
X7178174Y-14593431D01*
X7192400Y-14518855D01*
X7193393Y-14510994D01*
X7212710Y-14203958D01*
X7212710Y-14196042D01*
X7193393Y-13889006D01*
X7192400Y-13881145D01*
X7169745Y-13762384D01*
X8346569Y-13762384D01*
X8347274Y-13776470D01*
X8356153Y-13780000D01*
X9481885Y-13780000D01*
X9497124Y-13775525D01*
X9498329Y-13774135D01*
X9500000Y-13766452D01*
X9500000Y-13761885D01*
X10300000Y-13761885D01*
X10304475Y-13777124D01*
X10305865Y-13778329D01*
X10313548Y-13780000D01*
X11439545Y-13780000D01*
X11453076Y-13776027D01*
X11454436Y-13766569D01*
X11435183Y-13686376D01*
X11432134Y-13676991D01*
X11339064Y-13452300D01*
X11334583Y-13443506D01*
X11207504Y-13236133D01*
X11201711Y-13228160D01*
X11043751Y-13043213D01*
X11036787Y-13036249D01*
X10851840Y-12878289D01*
X10843867Y-12872496D01*
X10636494Y-12745417D01*
X10627700Y-12740936D01*
X10403009Y-12647866D01*
X10393624Y-12644817D01*
X10317616Y-12626569D01*
X10303530Y-12627274D01*
X10300000Y-12636153D01*
X10300000Y-13761885D01*
X9500000Y-13761885D01*
X9500000Y-12640455D01*
X9496027Y-12626924D01*
X9486569Y-12625564D01*
X9406376Y-12644817D01*
X9396991Y-12647866D01*
X9172300Y-12740936D01*
X9163506Y-12745417D01*
X8956133Y-12872496D01*
X8948160Y-12878289D01*
X8763213Y-13036249D01*
X8756249Y-13043213D01*
X8598289Y-13228160D01*
X8592496Y-13236133D01*
X8465417Y-13443506D01*
X8460936Y-13452300D01*
X8367866Y-13676991D01*
X8364817Y-13686376D01*
X8346569Y-13762384D01*
X7169745Y-13762384D01*
X7134754Y-13578954D01*
X7132783Y-13571277D01*
X7037716Y-13278691D01*
X7034801Y-13271328D01*
X6903811Y-12992959D01*
X6899999Y-12986026D01*
X6746516Y-12744175D01*
X6735910Y-12734878D01*
X6726637Y-12739049D01*
X5278495Y-14187190D01*
X5270883Y-14201131D01*
X4127882Y-14201131D01*
X4129117Y-14198869D01*
X4128986Y-14197034D01*
X4124735Y-14190420D01*
X2676004Y-12741690D01*
X2663624Y-12734930D01*
X2655485Y-12741022D01*
X2500001Y-12986026D01*
X2496189Y-12992959D01*
X2365199Y-13271328D01*
X2362284Y-13278691D01*
X2267217Y-13571277D01*
X2265246Y-13578954D01*
X2207600Y-13881145D01*
X2206607Y-13889006D01*
X2187290Y-14196042D01*
X2187290Y-14203958D01*
X1508500Y-14203958D01*
X1508500Y-12166700D01*
X3238343Y-12166700D01*
X3245247Y-12179561D01*
X4687190Y-13621505D01*
X4701131Y-13629117D01*
X4702966Y-13628986D01*
X4709580Y-13624735D01*
X6155077Y-12179237D01*
X6161690Y-12167127D01*
X6152861Y-12155507D01*
X6049720Y-12080570D01*
X6043039Y-12076330D01*
X5773428Y-11928110D01*
X5766293Y-11924753D01*
X5480230Y-11811492D01*
X5472704Y-11809047D01*
X5174721Y-11732538D01*
X5166950Y-11731055D01*
X4861722Y-11692497D01*
X4853831Y-11692000D01*
X4546169Y-11692000D01*
X4538278Y-11692497D01*
X4233050Y-11731055D01*
X4225279Y-11732538D01*
X3927296Y-11809047D01*
X3919770Y-11811492D01*
X3633707Y-11924753D01*
X3626572Y-11928110D01*
X3356961Y-12076330D01*
X3350280Y-12080570D01*
X3246766Y-12155777D01*
X3238343Y-12166700D01*
X1508500Y-12166700D01*
X1508500Y-11026000D01*
X1528502Y-10957879D01*
X1582158Y-10911386D01*
X1634500Y-10900000D01*
X8500000Y-10900000D01*
X10763095Y-8636905D01*
X10825407Y-8602879D01*
X10852190Y-8600000D01*
X14074000Y-8600000D01*
X14142121Y-8620002D01*
G37*
%TD.AperFunction*%
%TD*%
%TA.AperFunction,Conductor*%
%TO.N,GND*%
G36*
X23249309Y-8633502D02*
G01*
X23295802Y-8687158D01*
X23304046Y-8751702D01*
X23306457Y-8751913D01*
X23286502Y-8980000D01*
X23306457Y-9208087D01*
X23307881Y-9213400D01*
X23307881Y-9213402D01*
X23334968Y-9314489D01*
X23365716Y-9429243D01*
X23368039Y-9434224D01*
X23368039Y-9434225D01*
X23460151Y-9631762D01*
X23460154Y-9631767D01*
X23462477Y-9636749D01*
X23512059Y-9707559D01*
X23565794Y-9784300D01*
X23593802Y-9824300D01*
X23755700Y-9986198D01*
X23760208Y-9989355D01*
X23760211Y-9989357D01*
X23763272Y-9991500D01*
X23943251Y-10117523D01*
X23948233Y-10119846D01*
X23948238Y-10119849D01*
X24145775Y-10211961D01*
X24150757Y-10214284D01*
X24156062Y-10215706D01*
X24156069Y-10215708D01*
X24186831Y-10223950D01*
X24247454Y-10260901D01*
X24278476Y-10324762D01*
X24270048Y-10395256D01*
X24243394Y-10434675D01*
X24231261Y-10446829D01*
X24222249Y-10458240D01*
X24137184Y-10596243D01*
X24131037Y-10609424D01*
X24079862Y-10763710D01*
X24076995Y-10777086D01*
X24067328Y-10871438D01*
X24067000Y-10877855D01*
X24067000Y-10981885D01*
X24071475Y-10997124D01*
X24072865Y-10998329D01*
X24080548Y-11000000D01*
X25436500Y-11000000D01*
X25504621Y-11020002D01*
X25551114Y-11073658D01*
X25562500Y-11126000D01*
X25562500Y-11674000D01*
X25542498Y-11742121D01*
X25488842Y-11788614D01*
X25436500Y-11800000D01*
X24085116Y-11800000D01*
X24069877Y-11804475D01*
X24068672Y-11805865D01*
X24067001Y-11813548D01*
X24067001Y-11922095D01*
X24067338Y-11928614D01*
X24077257Y-12024206D01*
X24080149Y-12037600D01*
X24131588Y-12191784D01*
X24137761Y-12204962D01*
X24201145Y-12307388D01*
X24219983Y-12375840D01*
X24198822Y-12443609D01*
X24144381Y-12489180D01*
X24107005Y-12499018D01*
X24075794Y-12502257D01*
X24062400Y-12505149D01*
X23908216Y-12556588D01*
X23895038Y-12562761D01*
X23757193Y-12648063D01*
X23745792Y-12657099D01*
X23631261Y-12771829D01*
X23622249Y-12783240D01*
X23537184Y-12921243D01*
X23531037Y-12934424D01*
X23479862Y-13088710D01*
X23476995Y-13102086D01*
X23467328Y-13196438D01*
X23467000Y-13202855D01*
X23467000Y-13481885D01*
X23471475Y-13497124D01*
X23472865Y-13498329D01*
X23480548Y-13500000D01*
X25789884Y-13500000D01*
X25805123Y-13495525D01*
X25806328Y-13494135D01*
X25807999Y-13486452D01*
X25807999Y-13202905D01*
X25807662Y-13196386D01*
X25797743Y-13100794D01*
X25794851Y-13087400D01*
X25743412Y-12933216D01*
X25737238Y-12920038D01*
X25654297Y-12786006D01*
X25635459Y-12717554D01*
X25656620Y-12649784D01*
X25711061Y-12604213D01*
X25721565Y-12600179D01*
X25816784Y-12568412D01*
X25829962Y-12562239D01*
X25967807Y-12476937D01*
X25979208Y-12467901D01*
X26093738Y-12353172D01*
X26100794Y-12344238D01*
X26158712Y-12303177D01*
X26229635Y-12299947D01*
X26291046Y-12335574D01*
X26297846Y-12343407D01*
X26301522Y-12349348D01*
X26426697Y-12474305D01*
X26432927Y-12478145D01*
X26432928Y-12478146D01*
X26570199Y-12562761D01*
X26577262Y-12567115D01*
X26656602Y-12593431D01*
X26677354Y-12600314D01*
X26735714Y-12640745D01*
X26762951Y-12706309D01*
X26750418Y-12776190D01*
X26744959Y-12786003D01*
X26657885Y-12927262D01*
X26650841Y-12948500D01*
X26609511Y-13073107D01*
X26602203Y-13095139D01*
X26591500Y-13199600D01*
X26591500Y-13592576D01*
X26571498Y-13660697D01*
X26554595Y-13681671D01*
X26470621Y-13765645D01*
X26460478Y-13774747D01*
X26430975Y-13798468D01*
X26427008Y-13803196D01*
X26398709Y-13836921D01*
X26395528Y-13840569D01*
X26393885Y-13842381D01*
X26391691Y-13844575D01*
X26364358Y-13877849D01*
X26363696Y-13878647D01*
X26303846Y-13949974D01*
X26301278Y-13954644D01*
X26297897Y-13958761D01*
X26266860Y-14016645D01*
X26254023Y-14040586D01*
X26253394Y-14041745D01*
X26211538Y-14117881D01*
X26211535Y-14117889D01*
X26208567Y-14123287D01*
X26206955Y-14128369D01*
X26204438Y-14133063D01*
X26177238Y-14222031D01*
X26176918Y-14223059D01*
X26148765Y-14311806D01*
X26148171Y-14317102D01*
X26146613Y-14322198D01*
X26145990Y-14328334D01*
X26137218Y-14414687D01*
X26137089Y-14415893D01*
X26131500Y-14465727D01*
X26131500Y-14469254D01*
X26131445Y-14470239D01*
X26130998Y-14475919D01*
X26126626Y-14518962D01*
X26127206Y-14525093D01*
X26130941Y-14564609D01*
X26131500Y-14576467D01*
X26131500Y-15608928D01*
X26111498Y-15677049D01*
X26057842Y-15723542D01*
X25987568Y-15733646D01*
X25922988Y-15704152D01*
X25887518Y-15653158D01*
X25853324Y-15561946D01*
X25844786Y-15546351D01*
X25768285Y-15444276D01*
X25755724Y-15431715D01*
X25653649Y-15355214D01*
X25638052Y-15346675D01*
X25593897Y-15330122D01*
X25537132Y-15287481D01*
X25512432Y-15220919D01*
X25527639Y-15151570D01*
X25548953Y-15123122D01*
X25643739Y-15028171D01*
X25652751Y-15016760D01*
X25737816Y-14878757D01*
X25743963Y-14865576D01*
X25795138Y-14711290D01*
X25798005Y-14697914D01*
X25807672Y-14603562D01*
X25808000Y-14597146D01*
X25808000Y-14318115D01*
X25803525Y-14302876D01*
X25802135Y-14301671D01*
X25794452Y-14300000D01*
X25055615Y-14300000D01*
X25040376Y-14304475D01*
X25039171Y-14305865D01*
X25037500Y-14313548D01*
X25037500Y-15265521D01*
X25017498Y-15333642D01*
X25006724Y-15348034D01*
X25001671Y-15353865D01*
X25000000Y-15361548D01*
X25000000Y-17889884D01*
X25004475Y-17905123D01*
X25005865Y-17906328D01*
X25013548Y-17907999D01*
X25444669Y-17907999D01*
X25451490Y-17907629D01*
X25502352Y-17902105D01*
X25517604Y-17898479D01*
X25638054Y-17853324D01*
X25653649Y-17844786D01*
X25755724Y-17768285D01*
X25768285Y-17755724D01*
X25844786Y-17653649D01*
X25853324Y-17638054D01*
X25898478Y-17517606D01*
X25902104Y-17502357D01*
X25902479Y-17498904D01*
X25903522Y-17496394D01*
X25903932Y-17494669D01*
X25904211Y-17494735D01*
X25929719Y-17433341D01*
X25988080Y-17392912D01*
X26059034Y-17390454D01*
X26120054Y-17426747D01*
X26129344Y-17438240D01*
X26130641Y-17439786D01*
X26133802Y-17444300D01*
X26295700Y-17606198D01*
X26300208Y-17609355D01*
X26300211Y-17609357D01*
X26303773Y-17611851D01*
X26483251Y-17737523D01*
X26488233Y-17739846D01*
X26488238Y-17739849D01*
X26630054Y-17805978D01*
X26690757Y-17834284D01*
X26696065Y-17835706D01*
X26696067Y-17835707D01*
X26906598Y-17892119D01*
X26906600Y-17892119D01*
X26911913Y-17893543D01*
X27140000Y-17913498D01*
X27368087Y-17893543D01*
X27373400Y-17892119D01*
X27373402Y-17892119D01*
X27583933Y-17835707D01*
X27583935Y-17835706D01*
X27589243Y-17834284D01*
X27649946Y-17805978D01*
X27791762Y-17739849D01*
X27791767Y-17739846D01*
X27796749Y-17737523D01*
X27976227Y-17611851D01*
X27979789Y-17609357D01*
X27979792Y-17609355D01*
X27984300Y-17606198D01*
X28146198Y-17444300D01*
X28150442Y-17438240D01*
X28274366Y-17261257D01*
X28277523Y-17256749D01*
X28279846Y-17251767D01*
X28279849Y-17251762D01*
X28295805Y-17217543D01*
X28342722Y-17164258D01*
X28410999Y-17144797D01*
X28478959Y-17165339D01*
X28524195Y-17217543D01*
X28540151Y-17251762D01*
X28540154Y-17251767D01*
X28542477Y-17256749D01*
X28636099Y-17390454D01*
X28648713Y-17408469D01*
X28671500Y-17480740D01*
X28671500Y-19319260D01*
X28648713Y-19391531D01*
X28542477Y-19543251D01*
X28540154Y-19548233D01*
X28540151Y-19548238D01*
X28528449Y-19573334D01*
X28445716Y-19750757D01*
X28444294Y-19756065D01*
X28444293Y-19756067D01*
X28396207Y-19935526D01*
X28386457Y-19971913D01*
X28366502Y-20200000D01*
X28386457Y-20428087D01*
X28387881Y-20433400D01*
X28387881Y-20433402D01*
X28435773Y-20612134D01*
X28445716Y-20649243D01*
X28448039Y-20654224D01*
X28448039Y-20654225D01*
X28540151Y-20851762D01*
X28540154Y-20851767D01*
X28542477Y-20856749D01*
X28564940Y-20888829D01*
X28653941Y-21015935D01*
X28673802Y-21044300D01*
X28835700Y-21206198D01*
X28840208Y-21209355D01*
X28840211Y-21209357D01*
X28902236Y-21252787D01*
X29023251Y-21337523D01*
X29028233Y-21339846D01*
X29028238Y-21339849D01*
X29225775Y-21431961D01*
X29230757Y-21434284D01*
X29236065Y-21435706D01*
X29236067Y-21435707D01*
X29446598Y-21492119D01*
X29446600Y-21492119D01*
X29451913Y-21493543D01*
X29680000Y-21513498D01*
X29908087Y-21493543D01*
X29913400Y-21492119D01*
X29913402Y-21492119D01*
X30123933Y-21435707D01*
X30123935Y-21435706D01*
X30129243Y-21434284D01*
X30134225Y-21431961D01*
X30331762Y-21339849D01*
X30331767Y-21339846D01*
X30336749Y-21337523D01*
X30457764Y-21252787D01*
X30519789Y-21209357D01*
X30519792Y-21209355D01*
X30524300Y-21206198D01*
X30686198Y-21044300D01*
X30706060Y-21015935D01*
X30795060Y-20888829D01*
X30817523Y-20856749D01*
X30819846Y-20851767D01*
X30819849Y-20851762D01*
X30911961Y-20654225D01*
X30911961Y-20654224D01*
X30914284Y-20649243D01*
X30924228Y-20612134D01*
X30950923Y-20512506D01*
X30965311Y-20458807D01*
X31002263Y-20398185D01*
X31066123Y-20367164D01*
X31136618Y-20375592D01*
X31191365Y-20420795D01*
X31212417Y-20479124D01*
X31215690Y-20512506D01*
X31215812Y-20513819D01*
X31223913Y-20606413D01*
X31225400Y-20611532D01*
X31225920Y-20616833D01*
X31252791Y-20705834D01*
X31253126Y-20706967D01*
X31271811Y-20771277D01*
X31279091Y-20796336D01*
X31281544Y-20801068D01*
X31283084Y-20806169D01*
X31285978Y-20811612D01*
X31326731Y-20888260D01*
X31327343Y-20889426D01*
X31370108Y-20971926D01*
X31373431Y-20976089D01*
X31375934Y-20980796D01*
X31434755Y-21052918D01*
X31435446Y-21053774D01*
X31466738Y-21092973D01*
X31469242Y-21095477D01*
X31469884Y-21096195D01*
X31473585Y-21100528D01*
X31500935Y-21134062D01*
X31535199Y-21162407D01*
X31536264Y-21163288D01*
X31545045Y-21171279D01*
X32043145Y-21669379D01*
X32052247Y-21679522D01*
X32075968Y-21709025D01*
X32080696Y-21712992D01*
X32114421Y-21741291D01*
X32118069Y-21744472D01*
X32119881Y-21746115D01*
X32122075Y-21748309D01*
X32155349Y-21775642D01*
X32156147Y-21776304D01*
X32227474Y-21836154D01*
X32232144Y-21838722D01*
X32236261Y-21842103D01*
X32256079Y-21852729D01*
X32318086Y-21885977D01*
X32319245Y-21886606D01*
X32395381Y-21928462D01*
X32395389Y-21928465D01*
X32400787Y-21931433D01*
X32405869Y-21933045D01*
X32410563Y-21935562D01*
X32442505Y-21945328D01*
X32499477Y-21962747D01*
X32500735Y-21963139D01*
X32538962Y-21975265D01*
X32589306Y-21991235D01*
X32594597Y-21991829D01*
X32599698Y-21993388D01*
X32692263Y-22002790D01*
X32693450Y-22002916D01*
X32722838Y-22006213D01*
X32739730Y-22008108D01*
X32739735Y-22008108D01*
X32743227Y-22008500D01*
X32746752Y-22008500D01*
X32747737Y-22008555D01*
X32753432Y-22009003D01*
X32765342Y-22010213D01*
X32790334Y-22012752D01*
X32790339Y-22012752D01*
X32796462Y-22013374D01*
X32842108Y-22009059D01*
X32853967Y-22008500D01*
X41338157Y-22008500D01*
X41351764Y-22009237D01*
X41383262Y-22012659D01*
X41383267Y-22012659D01*
X41389388Y-22013324D01*
X41415638Y-22011027D01*
X41439388Y-22008950D01*
X41444214Y-22008621D01*
X41446686Y-22008500D01*
X41449769Y-22008500D01*
X41461738Y-22007326D01*
X41492506Y-22004310D01*
X41493819Y-22004188D01*
X41538084Y-22000315D01*
X41586413Y-21996087D01*
X41591532Y-21994600D01*
X41596833Y-21994080D01*
X41685834Y-21967209D01*
X41686967Y-21966874D01*
X41770414Y-21942630D01*
X41770418Y-21942628D01*
X41776336Y-21940909D01*
X41781068Y-21938456D01*
X41786169Y-21936916D01*
X41793167Y-21933195D01*
X41868260Y-21893269D01*
X41869426Y-21892657D01*
X41946453Y-21852729D01*
X41951926Y-21849892D01*
X41956089Y-21846569D01*
X41960796Y-21844066D01*
X42032918Y-21785245D01*
X42033774Y-21784554D01*
X42072973Y-21753262D01*
X42075477Y-21750758D01*
X42076195Y-21750116D01*
X42080528Y-21746415D01*
X42114062Y-21719065D01*
X42143288Y-21683737D01*
X42151277Y-21674958D01*
X42276405Y-21549830D01*
X42338717Y-21515804D01*
X42409532Y-21520869D01*
X42466368Y-21563416D01*
X42491179Y-21629936D01*
X42491500Y-21638925D01*
X42491500Y-23950633D01*
X42490000Y-23970018D01*
X42487753Y-23984452D01*
X42486309Y-23993724D01*
X42487473Y-24002626D01*
X42487489Y-24002750D01*
X42487760Y-24033192D01*
X42485430Y-24053870D01*
X42480766Y-24095264D01*
X42474487Y-24122771D01*
X42447515Y-24199853D01*
X42435273Y-24225274D01*
X42391822Y-24294426D01*
X42374230Y-24316485D01*
X42316485Y-24374230D01*
X42294426Y-24391822D01*
X42225274Y-24435273D01*
X42199853Y-24447515D01*
X42122772Y-24474487D01*
X42095264Y-24480766D01*
X42039774Y-24487018D01*
X42024132Y-24486923D01*
X42024121Y-24487800D01*
X42015149Y-24487690D01*
X42006276Y-24486309D01*
X41997374Y-24487473D01*
X41997372Y-24487473D01*
X41986385Y-24488910D01*
X41974714Y-24490436D01*
X41958379Y-24491500D01*
X2049367Y-24491500D01*
X2029982Y-24490000D01*
X2015148Y-24487690D01*
X2015145Y-24487690D01*
X2006276Y-24486309D01*
X1997374Y-24487473D01*
X1997250Y-24487489D01*
X1966808Y-24487760D01*
X1946130Y-24485430D01*
X1904736Y-24480766D01*
X1877229Y-24474487D01*
X1800147Y-24447515D01*
X1774726Y-24435273D01*
X1705574Y-24391822D01*
X1683515Y-24374230D01*
X1625770Y-24316485D01*
X1608178Y-24294426D01*
X1564727Y-24225274D01*
X1552485Y-24199853D01*
X1525513Y-24122772D01*
X1519234Y-24095266D01*
X1513170Y-24041451D01*
X1512888Y-24016640D01*
X1513576Y-24012552D01*
X1513729Y-24000000D01*
X1509773Y-23972376D01*
X1508500Y-23954514D01*
X1508500Y-23432873D01*
X3238310Y-23432873D01*
X3247139Y-23444493D01*
X3350280Y-23519430D01*
X3356961Y-23523670D01*
X3626572Y-23671890D01*
X3633707Y-23675247D01*
X3919770Y-23788508D01*
X3927296Y-23790953D01*
X4225279Y-23867462D01*
X4233050Y-23868945D01*
X4538278Y-23907503D01*
X4546169Y-23908000D01*
X4853831Y-23908000D01*
X4861722Y-23907503D01*
X5166950Y-23868945D01*
X5174721Y-23867462D01*
X5472704Y-23790953D01*
X5480230Y-23788508D01*
X5766293Y-23675247D01*
X5773428Y-23671890D01*
X6023032Y-23534669D01*
X9802001Y-23534669D01*
X9802371Y-23541490D01*
X9807895Y-23592352D01*
X9811521Y-23607604D01*
X9856676Y-23728054D01*
X9865214Y-23743649D01*
X9941715Y-23845724D01*
X9954276Y-23858285D01*
X10056351Y-23934786D01*
X10071946Y-23943324D01*
X10192394Y-23988478D01*
X10207649Y-23992105D01*
X10258514Y-23997631D01*
X10265328Y-23998000D01*
X10641885Y-23998000D01*
X10657124Y-23993525D01*
X10658329Y-23992135D01*
X10660000Y-23984452D01*
X10660000Y-23979884D01*
X11460000Y-23979884D01*
X11464475Y-23995123D01*
X11465865Y-23996328D01*
X11473548Y-23997999D01*
X11854669Y-23997999D01*
X11861490Y-23997629D01*
X11912352Y-23992105D01*
X11927604Y-23988479D01*
X12048054Y-23943324D01*
X12063649Y-23934786D01*
X12165724Y-23858285D01*
X12178285Y-23845724D01*
X12254786Y-23743649D01*
X12263324Y-23728054D01*
X12308478Y-23607606D01*
X12312105Y-23592351D01*
X12317631Y-23541486D01*
X12318000Y-23534672D01*
X12318000Y-23158115D01*
X12313525Y-23142876D01*
X12312135Y-23141671D01*
X12304452Y-23140000D01*
X11478115Y-23140000D01*
X11462876Y-23144475D01*
X11461671Y-23145865D01*
X11460000Y-23153548D01*
X11460000Y-23979884D01*
X10660000Y-23979884D01*
X10660000Y-23158115D01*
X10655525Y-23142876D01*
X10654135Y-23141671D01*
X10646452Y-23140000D01*
X9820116Y-23140000D01*
X9804877Y-23144475D01*
X9803672Y-23145865D01*
X9802001Y-23153548D01*
X9802001Y-23534669D01*
X6023032Y-23534669D01*
X6043039Y-23523670D01*
X6049720Y-23519430D01*
X6153234Y-23444223D01*
X6161657Y-23433300D01*
X6154753Y-23420439D01*
X4712810Y-21978495D01*
X4698869Y-21970883D01*
X4697034Y-21971014D01*
X4690420Y-21975265D01*
X3244923Y-23420763D01*
X3238310Y-23432873D01*
X1508500Y-23432873D01*
X1508500Y-21403958D01*
X2187290Y-21403958D01*
X2206607Y-21710994D01*
X2207600Y-21718855D01*
X2265246Y-22021046D01*
X2267217Y-22028723D01*
X2362284Y-22321309D01*
X2365199Y-22328672D01*
X2496189Y-22607041D01*
X2500001Y-22613974D01*
X2653484Y-22855825D01*
X2664090Y-22865122D01*
X2673363Y-22860951D01*
X4121505Y-21412810D01*
X4127882Y-21401131D01*
X5270883Y-21401131D01*
X5271014Y-21402966D01*
X5275265Y-21409580D01*
X6723996Y-22858310D01*
X6736376Y-22865070D01*
X6744515Y-22858978D01*
X6899999Y-22613974D01*
X6903811Y-22607041D01*
X7034801Y-22328672D01*
X7037716Y-22321309D01*
X7132783Y-22028723D01*
X7134754Y-22021046D01*
X7192400Y-21718855D01*
X7193393Y-21710994D01*
X7212710Y-21403958D01*
X7212710Y-21396042D01*
X7193393Y-21089006D01*
X7192400Y-21081145D01*
X7134754Y-20778954D01*
X7132783Y-20771277D01*
X7037716Y-20478691D01*
X7034801Y-20471328D01*
X6903811Y-20192959D01*
X6899999Y-20186026D01*
X6746516Y-19944175D01*
X6735910Y-19934878D01*
X6726637Y-19939049D01*
X5278495Y-21387190D01*
X5270883Y-21401131D01*
X4127882Y-21401131D01*
X4129117Y-21398869D01*
X4128986Y-21397034D01*
X4124735Y-21390420D01*
X2676004Y-19941690D01*
X2663624Y-19934930D01*
X2655485Y-19941022D01*
X2500001Y-20186026D01*
X2496189Y-20192959D01*
X2365199Y-20471328D01*
X2362284Y-20478691D01*
X2267217Y-20771277D01*
X2265246Y-20778954D01*
X2207600Y-21081145D01*
X2206607Y-21089006D01*
X2187290Y-21396042D01*
X2187290Y-21403958D01*
X1508500Y-21403958D01*
X1508500Y-19366700D01*
X3238343Y-19366700D01*
X3245247Y-19379561D01*
X4687190Y-20821505D01*
X4701131Y-20829117D01*
X4702966Y-20828986D01*
X4709580Y-20824735D01*
X6155077Y-19379237D01*
X6161690Y-19367127D01*
X6152861Y-19355507D01*
X6049720Y-19280570D01*
X6043039Y-19276330D01*
X5773428Y-19128110D01*
X5766293Y-19124753D01*
X5480230Y-19011492D01*
X5472704Y-19009047D01*
X5174721Y-18932538D01*
X5166950Y-18931055D01*
X4861722Y-18892497D01*
X4853831Y-18892000D01*
X4546169Y-18892000D01*
X4538278Y-18892497D01*
X4233050Y-18931055D01*
X4225279Y-18932538D01*
X3927296Y-19009047D01*
X3919770Y-19011492D01*
X3633707Y-19124753D01*
X3626572Y-19128110D01*
X3356961Y-19276330D01*
X3350280Y-19280570D01*
X3246766Y-19355777D01*
X3238343Y-19366700D01*
X1508500Y-19366700D01*
X1508500Y-18239500D01*
X1528502Y-18171379D01*
X1582158Y-18124886D01*
X1634500Y-18113500D01*
X9686484Y-18113500D01*
X9689150Y-18113272D01*
X9689152Y-18113272D01*
X9770961Y-18106278D01*
X9770967Y-18106277D01*
X9773648Y-18106048D01*
X9776641Y-18105532D01*
X9776701Y-18105539D01*
X9778956Y-18105249D01*
X9779028Y-18105808D01*
X9847166Y-18113678D01*
X9902094Y-18158661D01*
X9912226Y-18176454D01*
X9963616Y-18286662D01*
X9963619Y-18286668D01*
X9965944Y-18291653D01*
X9969100Y-18296160D01*
X9969101Y-18296162D01*
X10068938Y-18438743D01*
X10092251Y-18472038D01*
X10247962Y-18627749D01*
X10252471Y-18630906D01*
X10252473Y-18630908D01*
X10313049Y-18673324D01*
X10428346Y-18754056D01*
X10433328Y-18756379D01*
X10433333Y-18756382D01*
X10560768Y-18815805D01*
X10614053Y-18862722D01*
X10633514Y-18930999D01*
X10612972Y-18998959D01*
X10560768Y-19044195D01*
X10433334Y-19103618D01*
X10433329Y-19103621D01*
X10428347Y-19105944D01*
X10423840Y-19109100D01*
X10423838Y-19109101D01*
X10252473Y-19229092D01*
X10252470Y-19229094D01*
X10247962Y-19232251D01*
X10092251Y-19387962D01*
X9965944Y-19568347D01*
X9963621Y-19573329D01*
X9963618Y-19573334D01*
X9916415Y-19674562D01*
X9872880Y-19767924D01*
X9815885Y-19980629D01*
X9796693Y-20200000D01*
X9815885Y-20419371D01*
X9872880Y-20632076D01*
X9907213Y-20705704D01*
X9963618Y-20826666D01*
X9963621Y-20826671D01*
X9965944Y-20831653D01*
X9969100Y-20836160D01*
X9969101Y-20836162D01*
X10070797Y-20981398D01*
X10092251Y-21012038D01*
X10247962Y-21167749D01*
X10252471Y-21170906D01*
X10252473Y-21170908D01*
X10306160Y-21208500D01*
X10369409Y-21252787D01*
X10369410Y-21252788D01*
X10413738Y-21308245D01*
X10421047Y-21378865D01*
X10389016Y-21442225D01*
X10327815Y-21478210D01*
X10297139Y-21482001D01*
X10265331Y-21482001D01*
X10258510Y-21482371D01*
X10207648Y-21487895D01*
X10192396Y-21491521D01*
X10071946Y-21536676D01*
X10056351Y-21545214D01*
X9954276Y-21621715D01*
X9941715Y-21634276D01*
X9865214Y-21736351D01*
X9856676Y-21751946D01*
X9811522Y-21872394D01*
X9807895Y-21887649D01*
X9802369Y-21938514D01*
X9802000Y-21945328D01*
X9802000Y-22321885D01*
X9806475Y-22337124D01*
X9807865Y-22338329D01*
X9815548Y-22340000D01*
X12299884Y-22340000D01*
X12315123Y-22335525D01*
X12316328Y-22334135D01*
X12317999Y-22326452D01*
X12317999Y-21945331D01*
X12317629Y-21938510D01*
X12312105Y-21887648D01*
X12308479Y-21872396D01*
X12263324Y-21751946D01*
X12254786Y-21736351D01*
X12178285Y-21634276D01*
X12165724Y-21621715D01*
X12063649Y-21545214D01*
X12048054Y-21536676D01*
X11927606Y-21491522D01*
X11912351Y-21487895D01*
X11861486Y-21482369D01*
X11854672Y-21482000D01*
X11822863Y-21482000D01*
X11754742Y-21461998D01*
X11708249Y-21408342D01*
X11698145Y-21338068D01*
X11727639Y-21273488D01*
X11750592Y-21252787D01*
X11781297Y-21231287D01*
X11853568Y-21208500D01*
X18639260Y-21208500D01*
X18711531Y-21231287D01*
X18863251Y-21337523D01*
X18868233Y-21339846D01*
X18868238Y-21339849D01*
X19065775Y-21431961D01*
X19070757Y-21434284D01*
X19076065Y-21435706D01*
X19076067Y-21435707D01*
X19286598Y-21492119D01*
X19286600Y-21492119D01*
X19291913Y-21493543D01*
X19520000Y-21513498D01*
X19748087Y-21493543D01*
X19753400Y-21492119D01*
X19753402Y-21492119D01*
X19963933Y-21435707D01*
X19963935Y-21435706D01*
X19969243Y-21434284D01*
X19974225Y-21431961D01*
X20171762Y-21339849D01*
X20171767Y-21339846D01*
X20176749Y-21337523D01*
X20297764Y-21252787D01*
X20359789Y-21209357D01*
X20359792Y-21209355D01*
X20364300Y-21206198D01*
X20526198Y-21044300D01*
X20546060Y-21015935D01*
X20635060Y-20888829D01*
X20657523Y-20856749D01*
X20659846Y-20851767D01*
X20659849Y-20851762D01*
X20751961Y-20654225D01*
X20751961Y-20654224D01*
X20754284Y-20649243D01*
X20764228Y-20612134D01*
X20812119Y-20433402D01*
X20812119Y-20433400D01*
X20813543Y-20428087D01*
X20833498Y-20200000D01*
X20813543Y-19971913D01*
X20803793Y-19935526D01*
X20755707Y-19756067D01*
X20755706Y-19756065D01*
X20754284Y-19750757D01*
X20671551Y-19573334D01*
X20659849Y-19548238D01*
X20659846Y-19548233D01*
X20657523Y-19543251D01*
X20548788Y-19387962D01*
X20529357Y-19360211D01*
X20529355Y-19360208D01*
X20526198Y-19355700D01*
X20364300Y-19193802D01*
X20359792Y-19190645D01*
X20359789Y-19190643D01*
X20222518Y-19094525D01*
X20176749Y-19062477D01*
X20171767Y-19060154D01*
X20171762Y-19060151D01*
X19974225Y-18968039D01*
X19974224Y-18968039D01*
X19969243Y-18965716D01*
X19963935Y-18964294D01*
X19963933Y-18964293D01*
X19753402Y-18907881D01*
X19753400Y-18907881D01*
X19748087Y-18906457D01*
X19520000Y-18886502D01*
X19291913Y-18906457D01*
X19286600Y-18907881D01*
X19286598Y-18907881D01*
X19076067Y-18964293D01*
X19076065Y-18964294D01*
X19070757Y-18965716D01*
X19065776Y-18968039D01*
X19065775Y-18968039D01*
X18868238Y-19060151D01*
X18868233Y-19060154D01*
X18863251Y-19062477D01*
X18774312Y-19124753D01*
X18711531Y-19168713D01*
X18639260Y-19191500D01*
X11853568Y-19191500D01*
X11781297Y-19168713D01*
X11723310Y-19128110D01*
X11691654Y-19105944D01*
X11686672Y-19103621D01*
X11686667Y-19103618D01*
X11559232Y-19044195D01*
X11505947Y-18997278D01*
X11486486Y-18929001D01*
X11507028Y-18861041D01*
X11559232Y-18815805D01*
X11686667Y-18756382D01*
X11686672Y-18756379D01*
X11691654Y-18754056D01*
X11781297Y-18691287D01*
X11853568Y-18668500D01*
X15078157Y-18668500D01*
X15091764Y-18669237D01*
X15123262Y-18672659D01*
X15123267Y-18672659D01*
X15129388Y-18673324D01*
X15155638Y-18671027D01*
X15179388Y-18668950D01*
X15184214Y-18668621D01*
X15186686Y-18668500D01*
X15189769Y-18668500D01*
X15201738Y-18667326D01*
X15232506Y-18664310D01*
X15233819Y-18664188D01*
X15278084Y-18660315D01*
X15326413Y-18656087D01*
X15331532Y-18654600D01*
X15336833Y-18654080D01*
X15425834Y-18627209D01*
X15426967Y-18626874D01*
X15510414Y-18602630D01*
X15510418Y-18602628D01*
X15516336Y-18600909D01*
X15521068Y-18598456D01*
X15526169Y-18596916D01*
X15531612Y-18594022D01*
X15608260Y-18553269D01*
X15609426Y-18552657D01*
X15686453Y-18512729D01*
X15691926Y-18509892D01*
X15696089Y-18506569D01*
X15700796Y-18504066D01*
X15772918Y-18445245D01*
X15773774Y-18444554D01*
X15812973Y-18413262D01*
X15815477Y-18410758D01*
X15816195Y-18410116D01*
X15820528Y-18406415D01*
X15854062Y-18379065D01*
X15883291Y-18343733D01*
X15891272Y-18334963D01*
X16614383Y-17611851D01*
X16624527Y-17602749D01*
X16649218Y-17582897D01*
X16654025Y-17579032D01*
X16686292Y-17540578D01*
X16689472Y-17536931D01*
X16691115Y-17535119D01*
X16693309Y-17532925D01*
X16720642Y-17499651D01*
X16721348Y-17498800D01*
X16724815Y-17494669D01*
X16766769Y-17444669D01*
X23292001Y-17444669D01*
X23292371Y-17451490D01*
X23297895Y-17502352D01*
X23301521Y-17517604D01*
X23346676Y-17638054D01*
X23355214Y-17653649D01*
X23431715Y-17755724D01*
X23444276Y-17768285D01*
X23546351Y-17844786D01*
X23561946Y-17853324D01*
X23682394Y-17898478D01*
X23697649Y-17902105D01*
X23748514Y-17907631D01*
X23755328Y-17908000D01*
X24181885Y-17908000D01*
X24197124Y-17903525D01*
X24198329Y-17902135D01*
X24200000Y-17894452D01*
X24200000Y-17018115D01*
X24195525Y-17002876D01*
X24194135Y-17001671D01*
X24186452Y-17000000D01*
X23310116Y-17000000D01*
X23294877Y-17004475D01*
X23293672Y-17005865D01*
X23292001Y-17013548D01*
X23292001Y-17444669D01*
X16766769Y-17444669D01*
X16781154Y-17427526D01*
X16783722Y-17422856D01*
X16787103Y-17418739D01*
X16830977Y-17336914D01*
X16831606Y-17335755D01*
X16873462Y-17259619D01*
X16873465Y-17259611D01*
X16876433Y-17254213D01*
X16878045Y-17249131D01*
X16880562Y-17244437D01*
X16907747Y-17155523D01*
X16908139Y-17154265D01*
X16934372Y-17071567D01*
X16936235Y-17065694D01*
X16936829Y-17060403D01*
X16938388Y-17055302D01*
X16947790Y-16962737D01*
X16947925Y-16961470D01*
X16953108Y-16915270D01*
X16953108Y-16915265D01*
X16953500Y-16911773D01*
X16953500Y-16908248D01*
X16953555Y-16907263D01*
X16954004Y-16901559D01*
X16957752Y-16864666D01*
X16957752Y-16864661D01*
X16958374Y-16858538D01*
X16954059Y-16812891D01*
X16953500Y-16801033D01*
X16953500Y-16181885D01*
X23292000Y-16181885D01*
X23296475Y-16197124D01*
X23297865Y-16198329D01*
X23305548Y-16200000D01*
X24181885Y-16200000D01*
X24197124Y-16195525D01*
X24198329Y-16194135D01*
X24200000Y-16186452D01*
X24200000Y-15334479D01*
X24220002Y-15266358D01*
X24230776Y-15251966D01*
X24235829Y-15246135D01*
X24237500Y-15238452D01*
X24237500Y-14318115D01*
X24233025Y-14302876D01*
X24231635Y-14301671D01*
X24223952Y-14300000D01*
X23485116Y-14300000D01*
X23469877Y-14304475D01*
X23468672Y-14305865D01*
X23467001Y-14313548D01*
X23467001Y-14597095D01*
X23467338Y-14603614D01*
X23477257Y-14699206D01*
X23480149Y-14712600D01*
X23531588Y-14866784D01*
X23537761Y-14879962D01*
X23623063Y-15017807D01*
X23632099Y-15029208D01*
X23705510Y-15102491D01*
X23739589Y-15164773D01*
X23734586Y-15235593D01*
X23692089Y-15292466D01*
X23660722Y-15309646D01*
X23561946Y-15346676D01*
X23546351Y-15355214D01*
X23444276Y-15431715D01*
X23431715Y-15444276D01*
X23355214Y-15546351D01*
X23346676Y-15561946D01*
X23301522Y-15682394D01*
X23297895Y-15697649D01*
X23292369Y-15748514D01*
X23292000Y-15755328D01*
X23292000Y-16181885D01*
X16953500Y-16181885D01*
X16953500Y-13516993D01*
X16973502Y-13448872D01*
X17027158Y-13402379D01*
X17048763Y-13394957D01*
X17055316Y-13394245D01*
X17062711Y-13391473D01*
X17062714Y-13391472D01*
X17183297Y-13346267D01*
X17191705Y-13343115D01*
X17308261Y-13255761D01*
X17395615Y-13139205D01*
X17418904Y-13077082D01*
X17461545Y-13020317D01*
X17528107Y-12995617D01*
X17597455Y-13010824D01*
X17625981Y-13032216D01*
X19164882Y-14571117D01*
X19198908Y-14633429D01*
X19201308Y-14649229D01*
X19206457Y-14708087D01*
X19229282Y-14793269D01*
X19261307Y-14912787D01*
X19265716Y-14929243D01*
X19268039Y-14934224D01*
X19268039Y-14934225D01*
X19360151Y-15131762D01*
X19360154Y-15131767D01*
X19362477Y-15136749D01*
X19382100Y-15164773D01*
X19487618Y-15315468D01*
X19493802Y-15324300D01*
X19655700Y-15486198D01*
X19660208Y-15489355D01*
X19660211Y-15489357D01*
X19738389Y-15544098D01*
X19843251Y-15617523D01*
X19848233Y-15619846D01*
X19848238Y-15619849D01*
X20045775Y-15711961D01*
X20050757Y-15714284D01*
X20056065Y-15715706D01*
X20056067Y-15715707D01*
X20266598Y-15772119D01*
X20266600Y-15772119D01*
X20271913Y-15773543D01*
X20500000Y-15793498D01*
X20728087Y-15773543D01*
X20733400Y-15772119D01*
X20733402Y-15772119D01*
X20943933Y-15715707D01*
X20943935Y-15715706D01*
X20949243Y-15714284D01*
X20954225Y-15711961D01*
X21151762Y-15619849D01*
X21151767Y-15619846D01*
X21156749Y-15617523D01*
X21261611Y-15544098D01*
X21339789Y-15489357D01*
X21339792Y-15489355D01*
X21344300Y-15486198D01*
X21506198Y-15324300D01*
X21512383Y-15315468D01*
X21617900Y-15164773D01*
X21637523Y-15136749D01*
X21639846Y-15131767D01*
X21639849Y-15131762D01*
X21731961Y-14934225D01*
X21731961Y-14934224D01*
X21734284Y-14929243D01*
X21738694Y-14912787D01*
X21792119Y-14713402D01*
X21792119Y-14713400D01*
X21793543Y-14708087D01*
X21813498Y-14480000D01*
X21793543Y-14251913D01*
X21785834Y-14223142D01*
X21735707Y-14036067D01*
X21735706Y-14036065D01*
X21734284Y-14030757D01*
X21703244Y-13964191D01*
X21639849Y-13828238D01*
X21639846Y-13828233D01*
X21637523Y-13823251D01*
X21506198Y-13635700D01*
X21344300Y-13473802D01*
X21339792Y-13470645D01*
X21339789Y-13470643D01*
X21226721Y-13391472D01*
X21156749Y-13342477D01*
X21151767Y-13340154D01*
X21151762Y-13340151D01*
X20954225Y-13248039D01*
X20954224Y-13248039D01*
X20949243Y-13245716D01*
X20943935Y-13244294D01*
X20943933Y-13244293D01*
X20850673Y-13219304D01*
X20728087Y-13186457D01*
X20669229Y-13181308D01*
X20603112Y-13155445D01*
X20591116Y-13144882D01*
X18716855Y-11270621D01*
X18707753Y-11260478D01*
X18687897Y-11235782D01*
X18684032Y-11230975D01*
X18645578Y-11198708D01*
X18641931Y-11195528D01*
X18640119Y-11193885D01*
X18637925Y-11191691D01*
X18604651Y-11164358D01*
X18603853Y-11163696D01*
X18532526Y-11103846D01*
X18527856Y-11101278D01*
X18523739Y-11097897D01*
X18441914Y-11054023D01*
X18440755Y-11053394D01*
X18364619Y-11011538D01*
X18364611Y-11011535D01*
X18359213Y-11008567D01*
X18354131Y-11006955D01*
X18349437Y-11004438D01*
X18260469Y-10977238D01*
X18259441Y-10976918D01*
X18170694Y-10948765D01*
X18165398Y-10948171D01*
X18160302Y-10946613D01*
X18067743Y-10937210D01*
X18066607Y-10937089D01*
X18032992Y-10933319D01*
X18020270Y-10931892D01*
X18020266Y-10931892D01*
X18016773Y-10931500D01*
X18013246Y-10931500D01*
X18012261Y-10931445D01*
X18006581Y-10930998D01*
X17974023Y-10927691D01*
X17969663Y-10927248D01*
X17969661Y-10927248D01*
X17963538Y-10926626D01*
X17921259Y-10930623D01*
X17917891Y-10930941D01*
X17906033Y-10931500D01*
X17554435Y-10931500D01*
X17486314Y-10911498D01*
X17439821Y-10857842D01*
X17436453Y-10849730D01*
X17398767Y-10749203D01*
X17395615Y-10740795D01*
X17308261Y-10624239D01*
X17191705Y-10536885D01*
X17183300Y-10533734D01*
X17183298Y-10533733D01*
X17182067Y-10533272D01*
X17181024Y-10532488D01*
X17175425Y-10529423D01*
X17175867Y-10528615D01*
X17125302Y-10490632D01*
X17100600Y-10424071D01*
X17115806Y-10354722D01*
X17128929Y-10335313D01*
X17184526Y-10267628D01*
X17184528Y-10267625D01*
X17187734Y-10263722D01*
X17253163Y-10151305D01*
X17307299Y-10058290D01*
X17307300Y-10058288D01*
X17309841Y-10053922D01*
X17326139Y-10011463D01*
X17395018Y-9832028D01*
X17395020Y-9832021D01*
X17396833Y-9827298D01*
X17403250Y-9796582D01*
X17407813Y-9780292D01*
X17409870Y-9774485D01*
X17421140Y-9711220D01*
X17421848Y-9707559D01*
X17445439Y-9594634D01*
X17446474Y-9589680D01*
X17447360Y-9570160D01*
X17449182Y-9553791D01*
X17452001Y-9537963D01*
X17453146Y-9444274D01*
X17453267Y-9440099D01*
X17457257Y-9352238D01*
X17457257Y-9352231D01*
X17457486Y-9347183D01*
X17455557Y-9330509D01*
X17454731Y-9314489D01*
X17454873Y-9302906D01*
X17454873Y-9302904D01*
X17454936Y-9297737D01*
X17442282Y-9215038D01*
X17441669Y-9210479D01*
X17434450Y-9148087D01*
X17429585Y-9106044D01*
X17423037Y-9082905D01*
X17419729Y-9067663D01*
X17418596Y-9060256D01*
X17404719Y-9017798D01*
X17403253Y-9012990D01*
X17384149Y-8945475D01*
X17363490Y-8872468D01*
X17326317Y-8792750D01*
X17315656Y-8722558D01*
X17344636Y-8657745D01*
X17404056Y-8618889D01*
X17440512Y-8613500D01*
X23181188Y-8613500D01*
X23249309Y-8633502D01*
G37*
%TD.AperFunction*%
%TD*%
M02*
